<svg xmlns="http://www.w3.org/2000/svg" viewBox="0 0 32 32"><defs><style>.cls-1{fill:none;}.cls-2{fill:#626262;}</style></defs><title>icon-social-homepage</title><g id="Layer_2" data-name="Layer 2"><g id="Layer_1-2" data-name="Layer 1"><rect class="cls-1" width="32" height="32"/><path class="cls-2" d="M31,15.79a.66.66,0,0,1,.19.42.68.68,0,0,1-.14.48l-1.32,1.64a.5.5,0,0,1-.42.21.75.75,0,0,1-.48-.16L16.42,8.17a.63.63,0,0,0-.84,0L3.14,18.38a.75.75,0,0,1-.48.16.5.5,0,0,1-.42-.21L.92,16.69a.68.68,0,0,1-.14-.48A.66.66,0,0,1,1,15.79L14.41,4.73A2.39,2.39,0,0,1,16,4.14a2.58,2.58,0,0,1,1.64.59l4.71,3.91V4.78a.58.58,0,0,1,.19-.45A.62.62,0,0,1,23,4.14h3a.65.65,0,0,1,.64.64v7.36ZM26.59,19a.69.69,0,0,0-.22-.53l-9.95-8.15a.63.63,0,0,0-.84,0L5.63,18.49a.69.69,0,0,0-.22.53v7.57a1.26,1.26,0,0,0,1.27,1.27h6.14a.62.62,0,0,0,.45-.19.58.58,0,0,0,.19-.45V21.29a.62.62,0,0,1,.63-.63h3.82a.62.62,0,0,1,.63.63v5.93a.58.58,0,0,0,.19.45.62.62,0,0,0,.45.19h6.14a1.26,1.26,0,0,0,1.27-1.27Z"/></g></g></svg>